/* XPM */
static char *_d97351fabee4a76d7c4f64e4de2ef0aUSGWTh1oT5vQPVdi[] = {
/* columns rows colors chars-per-pixel */
"64 64 203 2 ",
"   c None",
".  c #010203",
"X  c #060709",
"o  c #090709",
"O  c #07080A",
"+  c #09090B",
"@  c #0D0506",
"#  c #140A0B",
"$  c #1C0C0D",
"%  c #140608",
"&  c #0E0E10",
"*  c #120F12",
"=  c #1D0E11",
"-  c #131215",
";  c #161619",
":  c #19171A",
">  c #1A1A1C",
",  c #181619",
"<  c #2A0B0C",
"1  c #210C0D",
"2  c #350E0F",
"3  c #250E10",
"4  c #291618",
"5  c #3C1214",
"6  c #3A1517",
"7  c #320F10",
"8  c #1C1E21",
"9  c #381D20",
"0  c #201F22",
"q  c #1F2024",
"w  c #232426",
"e  c #262628",
"r  c #28272A",
"t  c #2B2A2D",
"y  c #272729",
"u  c #382528",
"i  c #2D2D31",
"p  c #322E32",
"a  c #2F3135",
"s  c #323136",
"d  c #333539",
"f  c #3B393E",
"g  c #393539",
"h  c #441415",
"j  c #46191B",
"k  c #5C1B1B",
"l  c #521818",
"z  c #631D1D",
"x  c #6B1F1F",
"c  c #4F1F21",
"v  c #621F20",
"b  c #4A2729",
"n  c #49373B",
"m  c #4D302D",
"M  c #6D2121",
"N  c #692729",
"B  c #732122",
"V  c #7C2526",
"C  c #622E31",
"Z  c #6D3336",
"A  c #6F432B",
"S  c #3B3D42",
"D  c #413D42",
"F  c #5C3B40",
"G  c #3B4246",
"H  c #3E4449",
"J  c #49474C",
"K  c #4B494E",
"L  c #434247",
"P  c #58484C",
"I  c #4D4D52",
"U  c #474C52",
"Y  c #514E53",
"T  c #5D4F54",
"R  c #4C5054",
"E  c #545359",
"W  c #5B5B5D",
"Q  c #565358",
"!  c #6A5855",
"~  c #774B50",
"^  c #5D5B62",
"/  c #585961",
"(  c #625E64",
")  c #5C6367",
"_  c #646265",
"`  c #65646B",
"'  c #67696F",
"]  c #776369",
"[  c #626D74",
"{  c #6D6B73",
"}  c #726D75",
"|  c #74737B",
" . c #7A757E",
".. c #787979",
"X. c #6B747A",
"o. c #8B2929",
"O. c #832727",
"+. c #942B2B",
"@. c #9B2D2E",
"#. c #8E3537",
"$. c #A12F2F",
"%. c #AC3232",
"&. c #A43738",
"*. c #B33434",
"=. c #9D5229",
"-. c #BC583B",
";. c #AA513D",
":. c #B66035",
">. c #C25E34",
",. c #C86738",
"<. c #C0602A",
"1. c #8B3E41",
"2. c #A83F41",
"3. c #A73F41",
"4. c #9D494D",
"5. c #9B4445",
"6. c #855559",
"7. c #8E524E",
"8. c #A84544",
"9. c #B54C4C",
"0. c #A9584E",
"q. c #B6574C",
"w. c #B95151",
"e. c #BA6C51",
"r. c #925E64",
"t. c #956166",
"y. c #9C6A67",
"u. c #8A727A",
"i. c #8E7878",
"p. c #927A7B",
"a. c #99787E",
"s. c #866D73",
"d. c #AA7968",
"f. c #AE6A69",
"g. c #8F614E",
"h. c #C15A41",
"j. c #C17352",
"k. c #C87876",
"l. c #D17F7F",
"z. c #B4857A",
"x. c #7D7B84",
"c. c #7E7780",
"v. c #837C85",
"b. c #7A8289",
"n. c #84838C",
"m. c #8A848D",
"M. c #88898A",
"N. c #838992",
"B. c #8B8992",
"V. c #888B95",
"C. c #85949D",
"Z. c #8E929C",
"A. c #8E9295",
"S. c #98989C",
"D. c #908F90",
"F. c #AC8F8F",
"G. c #8797A0",
"H. c #929DA6",
"J. c #949DA7",
"K. c #A09FA0",
"L. c #96A2AC",
"P. c #9BA2A7",
"I. c #97A7B1",
"U. c #9AABB5",
"Y. c #9CAFB9",
"T. c #99A7B1",
"R. c #9DB1BB",
"E. c #A4A4A5",
"W. c #A9A8AA",
"Q. c #A2B4BE",
"!. c #ABB4B9",
"~. c #B9B7B8",
"^. c #D38282",
"/. c #C69D9D",
"(. c #CC9FA1",
"). c #D2B3B1",
"_. c #EBBBBB",
"`. c #E6B5B5",
"'. c #D2A39E",
"]. c #A4B6C0",
"[. c #AABAC3",
"{. c #B4C3CB",
"}. c #BBC8D0",
"|. c #C7C9CA",
" X c #C2CDD3",
".X c #C5D1D7",
"XX c #C7D4DB",
"oX c #DBDBDB",
"OX c #D4D9DC",
"+X c #D4C5C6",
"@X c #E7DCDC",
"#X c #F1DFDF",
"$X c #DFDFE0",
"%X c #DCE4E8",
"&X c #E1E1E2",
"*X c #E0E6EA",
"=X c #E2E9EC",
"-X c #EAEAEA",
";X c #F4E3E2",
":X c #EEF1F3",
">X c #F2F4F5",
",X c #F5F8F9",
"<X c #E9EEF1",
/* pixels */
"                                                                                                                                ",
"                                                                                                                                ",
"                                                                                                                                ",
"                                                                                                                                ",
"                                          X X . X X . X . X .                                                                   ",
"                                        X X X X X X X + X X o o                                                                 ",
"                                        . O o # # $ 1 1 $ $ $ $                                                                 ",
"                                        . + + $ 3 6 j h j h 5 5 3                                                               ",
"                                        X X # 7 j v B B B M z j 5 $ o                                                           ",
"                                        . X $ 6 k V +.@.@.+.O.v 6 $ + .                                                         ",
"                                        X X $ 6 v V +.&.&.3.#.N 6 $ o .                                                         ",
"                                          X $ 2 l v V #.1.5.5.Z u $ . . .                                                       ",
"                                              < 2 h c C ~ 6.6.F u = . . . . . . . . . . . . .                                   ",
"                                                $ 1 9 D ! ] ] T g : + . . X O + o X O O + . O O                                 ",
"                                                * : r D / } | ^ L t 8 > > 8 8 8 8 8 8 8 8 8 8 8                                 ",
"                                              8 w i S Y ` | c.{ ^ I H G G G G G G G G G G G S d t                               ",
"                                          . - e d I E ` } c.x.x.b.b.[ b.[ b.b.b.b.b.[ b.X.X.[ H d 8 X                           ",
"                                        . + > p I _ }  .x.v.n.n.b.b.b.b.b.b.b.b.b.b.b.b.b.b.b.) S q X .                         ",
"                                        * > e D ^  .m.m.m.m.V.Z.Y.Y.R.R.R.R.b.].R.R.R.R.[.R.b.X.G 8 O .                         ",
"                                      > e p S E { n.Z.Z.Z.Z.Z.H.b.Y.R.R.R.R.R.R.R.R.R.].].R.G.[ G 8 X .                         ",
"                                  X ; r S K ^ } b.Z.J.J.H.H.H.L.R.R.R.R.R.R.R.R.R.Y.R.R.R.Y.G.[ G 8 + .                         ",
"                                . o ; i J ( | n.Z.J.T.U.T.I.I.T.R.R.R.R.R.R.R.R.R.R.R.R.Q.Y.G.[ G 8 . .                         ",
"                                . o > s Q | B.H.L.T.U.R.].[.[.[.].].].].].].[.[.].].].].{.].L.X.L q O .                         ",
"                                . X > g / v.G.J.T.U.Q.[.{.}..X.XXXXXXXXXXXXXXXXXXXXXXXXXOX X!.b.U w O .                         ",
"                                . o > S ) b.I.U.U.Y.Q.[. XOX%X%X%X=X=X=X=X=X=X=X=X=X=X<X:X%X|.A.E e X .                         ",
"                                . X 8 S ) C.T.Y.U.Y.[. XOX-X:X>X<X=X<X<X:X:X:X:X:X:X:X>X,X<X|.S.W y + .                         ",
"                                . O 8 G [ G.U.R.Y.Y.[. X%X:X,X>X=X%XOXoXoXoXoXoXoXoXoX&X&XoX~.M.R w + .                         ",
"                                . O 8 G [ G.U.Q.Y.U.[. X*X>X>X$X}.].E.K.K.K.K.E.E.E.W.W.W.K.M._ D > o .                         ",
"                                . X 8 G [ G.U.R.Y.Y.[. X*X>X-X|.S...W W Q W W _ _ _ _ _ _ W R f w - X .                         ",
"                                . X 8 G [ C.U.Y.Y.Y.[.XX*X:X$X~...R t y e t t t t t y t t t e 0 - & X X                         ",
"                                . + 8 S [ C.T.Y.Y.R.[.XX=X:X%X~...K i y y t e 8 ; & & , 0 y y 0 - & X .                         ",
"                                . . > S ) b.J.U.U.Y.[.XX=X,X-X|.K..._ W W W R d 8 + + 8 g R R D y - O .                         ",
"                                . o : S ^ x.H.L.L.].[..X=X,X>X%X|.W.E.E.E.K.z.) d ; ; f ) M.M.' H > O .                         ",
"                                . + : s E c.v.Z.J.T.[. X%X:X,X:X-X&XoX&X&XoX[.b.K q y R D.~.!.M.W e + .                         ",
"                                . X - t D ` c.v.v.K.W.).+X@X#X;X;X#X#X;X;X@X|.z.! m m _ K.+X).D.! y + .                         ",
"                                . X & 8 S J T ] t.v.v./.(.).`.`.`._._._._.+X'.z.g.A A g.z.'./.z.P w + .                         ",
"                                X + + ; 8 i D P 6.r.f.f.k.k.k.l.l.^.^.^.^.l.k.e.;.=.=.:.e.k.f.6.m 0 + .                         ",
"                                . X X & & ; 4 b Z 3.2.2.9.w.9.w.w.w.w.w.e.q.q.-.<.:.<.<.h.w.8.Z b 3 X .                         ",
"                                X X X X X X = j N 1.2.2.3.3.3.3.3.3.3.3.&.;.;.-.,.,.,.,.q.;.#.N 6 = O .                         ",
"                                  . . . X X = 9 C 1.3.9.4.4.4.3.4.4.4.4.4.4.0.q.e.j.j.e.q.8.1.C 9 = O .                         ",
"                                      . . X * u F ~ r.t.t.t.r.r.r.r.t.t.r.r.r.y.f.d.d.d.y.r.6.F u , . .                         ",
"                                        . X , p P ] v.v.a.u.u.u.u.u.u.u.u.u.v.a.i.p.p.p.v.s.] P p : + .                         ",
"                                        @ + ; p E { v.v.v.v.v.v.c.} } } { } } { } } }  .x.c.} T p : O .                         ",
"                                      h 1 # : d R c.v.B.v.v.v.v.) / E E E E E E I E W ' c.x.c.E g > O .                         ",
"                                  %.o.k 2 $ > p E } v.B.B.v.x.` R S a a a a s a i s S E { c.| E g : X .                         ",
"                                *.%.+.x 5 $ > i Y } v.B.B.v.| / S r 8 ; - 8 ; ; ; > t D ^ { { T g ; . .                         ",
"                                *.%.+.M h = > s Y } v.v.v.} ( P g 9 = # @ + + & & : r S E ( ( I p : + .                         ",
"                              *.*.%.+.M h 1 > s Q { v. .{ / K F b j 7 < % @ + - 8 i g D J Y J D y ; . .                         ",
"                          *.*.*.*.%.+.M h 1 > d E |  .' E D g m c M z h < % & 8 d J Y K D g p w : + o                           ",
"                        %.%.%.*.%.%.+.M 5 1 > s E { } ( D y 4 j N O.V k 2 $ ; i J ( ( Y f w : - + +                             ",
"                        @.$.$.$.%.$.O.z 5 = ; i K ^ ( I s : $ h M o.O.z 5 $ ; i J ^ ( I g : + . .                               ",
"                        O.o.+.+.@.o.B l 7 # - q S J J g e * % 2 z V V k 2 # - e g K I D y & . .                                 ",
"                          x x B B M l 2 $ # + > q i i e : + % < h z k 5 1 # & > e i p t 8 + .                                   ",
"                                    7 $ @ o + + * * ; - & X         < $ @ X + + - ; ; ; + +                                     ",
"                                      . X X o X X X X X .             X X X X o o . X X .                                       ",
"                                        . . o . . . . .                 . X . . . . . .                                         ",
"                                          . . . . . .                     . . . . . .                                           ",
"                                                                                                                                ",
"                                                                                                                                ",
"                                                                                                                                ",
"                                                                                                                                ",
"                                                                                                                                ",
"                                                                                                                                ",
"                                                                                                                                "
};
