/* XPM */
static char *c2160cba613147cfa4917c9d8aacd2054gZoaQxzdpXFLmp4[] = {
/* columns rows colors chars-per-pixel */
"64 64 122 2 ",
"   c None",
".  c #3F201C",
"X  c #40211D",
"o  c #40221E",
"O  c #412320",
"+  c #4C393E",
"@  c #4C393F",
"#  c #534249",
"$  c #404C62",
"%  c #414D63",
"&  c #424D63",
"*  c #424E63",
"=  c #424E64",
"-  c #434F65",
";  c #455168",
":  c #49546A",
">  c #49566E",
",  c #4B576F",
"<  c #4B5871",
"1  c #4B5971",
"2  c #4C5871",
"3  c #4C5971",
"4  c #4D5972",
"5  c #4D5A72",
"6  c #4D5A73",
"7  c #4E5A73",
"8  c #4E5B73",
"9  c #4F5C74",
"0  c #4F5C75",
"q  c #505C74",
"w  c #515D75",
"e  c #515E75",
"r  c #525E75",
"t  c #535F76",
"y  c #536076",
"u  c #546076",
"i  c #556076",
"p  c #556177",
"a  c #556178",
"s  c #566278",
"d  c #576278",
"f  c #566279",
"g  c #576379",
"h  c #586379",
"j  c #58647A",
"k  c #59657A",
"l  c #5B667B",
"z  c #5B667C",
"x  c #5B677C",
"c  c #63687F",
"v  c #5B6985",
"b  c #636880",
"n  c #646980",
"m  c #62718F",
"M  c #62728F",
"N  c #63728F",
"B  c #72788F",
"V  c #637290",
"C  c #637390",
"Z  c #647390",
"A  c #647391",
"S  c #657491",
"D  c #657492",
"F  c #667593",
"G  c #6E7C97",
"H  c #6B7B9A",
"J  c #6C7B9B",
"K  c #6F7D98",
"L  c #6E7E9E",
"P  c #6E7E9F",
"I  c #6E7F9F",
"U  c #6F7F9F",
"Y  c #6E7FA0",
"T  c #6F7FA0",
"R  c #76839C",
"E  c #77839C",
"W  c #7C869B",
"Q  c #79869F",
"!  c #6F80A0",
"~  c #6F80A1",
"^  c #7080A0",
"/  c #7080A1",
"(  c #7181A1",
")  c #7081A2",
"_  c #7181A2",
"`  c #7C88A0",
"'  c #7D89A1",
"]  c #7D8BA8",
"[  c #7E8CA9",
"{  c #7E8DAA",
"}  c #7F8DAA",
"|  c #7E8DAB",
" . c #7F8EAB",
".. c #7F8EAC",
"X. c #848FA6",
"o. c #828FA9",
"O. c #8590A7",
"+. c #8794AF",
"@. c #8893A9",
"#. c #8994A9",
"$. c #8895AF",
"%. c #8F99AD",
"&. c #8F9AAE",
"*. c #909AAE",
"=. c #919BAF",
"-. c #8895B0",
";. c #8996B0",
":. c #8A97B1",
">. c #959DB2",
",. c #909CB5",
"<. c #919DB6",
"1. c #929EB6",
"2. c #929EB7",
"3. c #99A5BC",
"4. c #9BA6BD",
"5. c #9BA7BE",
"6. c #9CA7BE",
"7. c #9CA8BF",
"8. c #9DA8BF",
"9. c #A0ABC0",
"0. c #A1ACC1",
"q. c #A2ADC2",
/* pixels */
"                                                                                                                                ",
"                                                                                                                                ",
"                                                                                                                                ",
"                                                                                                                                ",
"                                                                                                                                ",
"                                                                                                                                ",
"                                                                                                                                ",
"                                                                                                                                ",
"                                                    $.$.$.$.$.$.$.$.$.$.$.$.                                                    ",
"                                                    $.$.$.$.$.$.$.$.$.$.$.$.                                                    ",
"                                                    $.$.$.$.$.$.$.$.$.$.$.;.                                                    ",
"                                                    o.$.$.$.$.$.$.$.$.$.$.o.                                                    ",
"                            $.$.$.$.$.$.$.;.;.R t f Q $.$.$.+.+.$.$.+.$.;.Q p t E ;.$.$.$.$.$.$.$.$.                            ",
"                            $.$.$.$.$.$.$.;.:.R t t ' <.<.<.,.,.,.,.<.<.<.` t t E :.:.+.$.$.$.$.$.$.                            ",
"                            ;.$.$.$.$.$.$.;.;.R t j @.0.0.9.0.7.9.9.9.0.0.@.h t E :.;.+.$.$.$.$.-.;.                            ",
"                            o.$.$.$.$.$.$.;.$.R t p X.7.4.3.3.3.3.3.3.3.7.X.f t E -.;.-.$.$.$.$.-.O.                            ",
"% y E :.;.+.$.$.$.;.:.E t f E ;.+.+.+.+.+.+.$.E t 5 K [ [ [ ] ] ] [ [ [ [ G 5 t E $.$.$.+.+.+.$.;.E g y E :.;.+.+.$.$.$.:.R y % ",
"% y E :.;.;.$.$.$.;.:.E t y Q 3.<.<.,.<.,.<.<.' p 2 N L T L L L L L L L L N 5 p ' <.<.<.,.,.<.<.3.E y 9 E :.;.-.$.$.+.:.:.Q y % ",
"% y E ;.;.$.$.$.+.;.;.E 9 g #.0.0.0.9.9.0.0.0.#.h < C L L L L L L L L U T C , j #.0.0.9.7.0.0.0.0.@.g y E ;.$.$.$.$.$.$.$.R y % ",
"% t E ;.;.$.$.$.-.;.;.E t p O.3.3.3.3.3.3.3.7.O.f 5 C ( ! T L ( L L U T T C 5 f O.7.4.3.3.3.3.3.5.X.f t E ;.;.$.$.$.$.:.$.R y % ",
"% y E ;.;.+.+.+.+.$.;.E t 7 K [ [ ] ] ] ] [ [ G q 5 N U ( L L ( ( ( L ( T A 5 q G [ [ [ [ ] ] [ [ K 5 t E ;.$.+.+.+.$.$.:.E p % ",
"% f ' <.<.,.,.,.<.<.<.' p < N T T L L L L ! ! N < 5 N ( L ( L L L L ( L ( A 5 < N L ! L L L L L L N 5 p ' <.<.<.,.,.<.<.1.' p % ",
"% j #.0.0.9.9.9.9.0.0.#.j < N L L L L L P T ! N 5 5 N ( ( L ( L ( L L ( ! A < < C T L L L L L L ! C < f #.0.0.0.9.9.9.0.0.#.j % ",
"% f X.7.3.3.3.3.3.4.7.X.p 5 A U ! ! L T L T R F 7 5 A ( L ( L T L L ( L ! F < 7 D R ! ! L ( L ( ! C < f O.3.7.3.3.3.3.3.7.O.p % ",
"% t G [ [ [ ] ] ] [ [ K q 5 A ( ! ! L ( L ( L H                                 H T L L ( L L ( T A < t K [ [ ] ] ] [ [ [ K t $ ",
"% 5 N L L L L L L L T A q 5 N T ! L L L L ( L (                                 ( L ( L ( L L ( ( C < 9 A L L L L L L T L C 5 % ",
"= 7 C T T U L U L L L H                                                                                 K T U U L L L L T A 5 = ",
"% 5 A ( ( T T T T ( T (                                                                                 T T T T U ( U ( ( A 5 % ",
"% 5 A ( ( R T T ( L T T                                                                                 T T T T T T R ( ( A 7 = ",
"% 5 v A C C C C C A N N                                                                                 C C A A C C C N A v , = ",
"- ; , 5 < 7 < 5 < 5 2 5                                                                                 5 2 < 5 < < 2 2 5 , ; - ",
"% : t x j j j z j z j x                                                                                 z z j z j j x x j t : = ",
"% p E >.*.%.%.*.*.*.*.*.                                                                                *.%.%.*.*.%.*.*.>.E p % ",
"$ j O.8.4.4.4.4.3.4.3.4.                                                                                4.4.3.4.4.3.3.7.3.@.h $ ",
"% q K [ o.[ [ [ [ [ [ [                                                                                 [ [ [ [ [ [ [ o.o.K t % ",
"% 5 C T L L L L L L L L                                                                                 L L L L L L L L T N 5 % ",
"* 5 A U U U U L L L L L                                                                                 L L L L L L U U T C 5 = ",
"* 5 N ( U U U U U U U U                                                                                 ( L L L U U U U T C 5 % ",
"= 7 A R ( U U U U U U U                                                                                 L ( L ( U U U ( T A 7 = ",
"= 7 C T T ( U ( U ( U U                                                                                 ( L ( L ( U T ( ( A 5 % ",
"= 7 F ( ( T T ( U T ( U                                                                                 T T T U U ( U ( ( A 7 = ",
"= < v A C C C N A N N A                                                                                 A N A N A N A N A v , = ",
"= ; , 5 2 2 < < , 2 < 2                                                                                 2 2 2 < 2 2 2 , < , ; - ",
"= : t j x x z j x x j x                                                                                 x j x x j x x x j p : = ",
"% p E >.*.*.*.%.*.%.%.*.                                                                                *.%.%.*.%.*.%.%.=.W p % ",
"$ j O.8.4.4.4.3.4.4.3.4.                                                                                4.4.3.4.3.3.3.9.7.O.j % ",
"% q K [ o.[ [ [ [ [ [ [                                                                                 [ [ [ [ [ [ [ [ o.K t % ",
"% 5 C T L L L L L L L L                                                                                 L L L L L T L T L N 5 % ",
"* 5 A U U U L L L L L L                                                                                 U L L L L L L U U N 5 - ",
"* 5 N ( U U U U U U U U                                                                                 U U U U U U U ( T A 5 % ",
"= 7 A R ( U U U U U U U                                                                                 U U U U U U U T U N 5 - ",
"= 7 C T T ( U ( U ( U (                                                                                 U ( U ( U ( U ( ( A q % ",
"= 7 F ( ( T T T T T ( T                                                                                 ( U U T T T U ( ( A q % ",
"= < v A C C N N A C N N                                                                                 N A A N A N A N A v , - ",
"= ; , 5 < 5 2 5 2 < 2 2                                                                                 2 2 < 2 2 < , 2 5 , ; - ",
"= : t j j z j x x j x z                                                                                 z x j x x j x x x t : % ",
"% p Q &.*.*.%.*.*.*.*.*.                                                                                %.%.%.%.*.*.*.*.>.E p % ",
"$ h X.9.4.4.3.4.4.4.4.1.                                                                                1.9.3.3.4.4.4.3.3.@.h % ",
"% t K [ o.[ [ [ [ [ o.B # . o o O O O O O O O O O O O O O O O O O O O O O O O O O O O O O O O O O o . # B o.| [ ] [ [ o.o.K t % ",
"% 5 C T T L L L L L ~ b + o o O O O O O O O O O O O O O O O O O O O O O O O O O O O O O O O O O O o . @ b T T L L L L L L N 5 % ",
"% 5 A U L L L L T ( T b + o o o O O O O O O O O O O O O O O O O O O O O O O O O O O O O O O O O O o o + b ! ! T L L L T T C 5 = ",
"% 5 A T ( U U U T T ) n + o o O O O O O O O O O O O O O O O O O O O O O O O O O O O O O O O O O O o o + n ~ ) T L ! L ! T A 5 % ",
"= < N ( U U U U T T ( n @ . o O O O O O O O O O O O O O O O O O O O O O O O O O O O O O O O O O O o . @ n ( T ( ! L T T R N 7 = ",
"= 7 C R ( U U T T T ( n @ o o O O O O O O O O O O O O O O O O O O O O O O O O O O O O O O O O O O o o @ n ! ( L L ( T T T F 5 % "
};
